<svg width="48" height="48" viewBox="0 0 48 48" fill="none" xmlns="http://www.w3.org/2000/svg">
<circle cx="24" cy="24" r="24" fill="url(#paint0_linear_3_51)"/>
<path d="M34.9292 19.5019C34.9168 18.5769 34.7437 17.6612 34.4175 16.7956C34.1346 16.0655 33.7025 15.4024 33.1488 14.8487C32.5951 14.2951 31.9321 13.863 31.202 13.5801C30.3475 13.2593 29.4448 13.0859 28.5323 13.0672C27.3575 13.0147 26.985 13 24.0028 13C21.0205 13 20.6383 13 19.472 13.0672C18.5599 13.086 17.6577 13.2595 16.8036 13.5801C16.0734 13.8628 15.4102 14.2948 14.8565 14.8485C14.3028 15.4022 13.8708 16.0654 13.5881 16.7956C13.2667 17.6494 13.0936 18.5519 13.0764 19.464C13.0239 20.64 13.008 21.0125 13.008 23.9948C13.008 26.977 13.008 27.3581 13.0764 28.5256C13.0947 29.439 13.2669 30.3403 13.5881 31.1964C13.8713 31.9264 14.3036 32.5893 14.8575 33.1428C15.4114 33.6962 16.0746 34.1281 16.8048 34.4107C17.6565 34.7443 18.559 34.9302 19.4732 34.9602C20.6493 35.0128 21.0217 35.0286 24.004 35.0286C26.9863 35.0286 27.3685 35.0286 28.5348 34.9602C29.4472 34.9423 30.35 34.7693 31.2044 34.4486C31.9343 34.1653 32.5972 33.7331 33.1509 33.1795C33.7045 32.6259 34.1367 31.963 34.4199 31.233C34.7411 30.3782 34.9133 29.4769 34.9316 28.5622C34.9841 27.3874 35 27.0149 35 24.0314C34.9976 21.0492 34.9976 20.6706 34.9292 19.5019ZM23.9954 29.6344C20.8764 29.6344 18.3497 27.1077 18.3497 23.9887C18.3497 20.8696 20.8764 18.3429 23.9954 18.3429C25.4928 18.3429 26.9288 18.9377 27.9876 19.9965C29.0464 21.0553 29.6412 22.4913 29.6412 23.9887C29.6412 25.486 29.0464 26.922 27.9876 27.9808C26.9288 29.0396 25.4928 29.6344 23.9954 29.6344ZM29.8659 19.4506C29.693 19.4507 29.5217 19.4168 29.3619 19.3507C29.2021 19.2846 29.0569 19.1876 28.9347 19.0653C28.8124 18.9431 28.7154 18.7979 28.6493 18.6381C28.5832 18.4783 28.5493 18.307 28.5494 18.1341C28.5494 17.9613 28.5835 17.7902 28.6496 17.6305C28.7157 17.4709 28.8127 17.3258 28.9348 17.2036C29.057 17.0814 29.2021 16.9845 29.3617 16.9184C29.5214 16.8522 29.6925 16.8182 29.8653 16.8182C30.0381 16.8182 30.2092 16.8522 30.3689 16.9184C30.5285 16.9845 30.6736 17.0814 30.7958 17.2036C30.918 17.3258 31.0149 17.4709 31.081 17.6305C31.1472 17.7902 31.1812 17.9613 31.1812 18.1341C31.1812 18.8619 30.5926 19.4506 29.8659 19.4506Z" fill="white"/>
<path d="M23.9954 27.656C26.0209 27.656 27.6628 26.0141 27.6628 23.9887C27.6628 21.9632 26.0209 20.3213 23.9954 20.3213C21.97 20.3213 20.3281 21.9632 20.3281 23.9887C20.3281 26.0141 21.97 27.656 23.9954 27.656Z" fill="white"/>
<defs>
<linearGradient id="paint0_linear_3_51" x1="24" y1="0" x2="24" y2="48" gradientUnits="userSpaceOnUse">
<stop stop-color="#F24E6F"/>
<stop offset="1" stop-color="#F52952"/>
</linearGradient>
</defs>
</svg>
