<svg width="48" height="48" viewBox="0 0 48 48" fill="none" xmlns="http://www.w3.org/2000/svg">
<circle cx="24" cy="24" r="24" fill="url(#paint0_linear_3_56)"/>
<path d="M31.8921 18.3435C30.8302 18.11 29.8695 17.546 29.148 16.7326C28.4265 15.9192 27.9811 14.8982 27.8759 13.816V13.3472H24.2007V27.9098C24.2014 28.556 23.9988 29.186 23.6216 29.7106C23.2444 30.2353 22.7117 30.6279 22.0989 30.833C21.4861 31.038 20.8244 31.0451 20.2074 30.8531C19.5904 30.6611 19.0494 30.2799 18.6611 29.7634C18.3133 29.3063 18.1003 28.7609 18.0462 28.1889C17.9921 27.617 18.0991 27.0413 18.3552 26.5271C18.6112 26.0128 19.006 25.5804 19.495 25.2788C19.9839 24.9772 20.5475 24.8185 21.122 24.8205C21.4397 24.8187 21.7558 24.8654 22.0594 24.959V21.2304C21.7061 21.1867 21.3501 21.1689 20.9941 21.1772C19.6831 21.2122 18.4107 21.6288 17.3328 22.3759C16.2549 23.123 15.4183 24.1683 14.9253 25.3836C14.4324 26.599 14.3046 27.9317 14.5575 29.2186C14.8105 30.5055 15.4332 31.6907 16.3495 32.6291C17.2885 33.5838 18.4902 34.2378 19.8018 34.508C21.1133 34.7783 22.4757 34.6525 23.7156 34.1467C24.9556 33.6409 26.0171 32.7779 26.7655 31.6674C27.5139 30.5569 27.9152 29.249 27.9186 27.9098V20.4528C29.4009 21.5116 31.1784 22.078 33 22.072V18.45C32.6422 18.4515 32.2852 18.4158 31.9347 18.3435H31.8921Z" fill="white"/>
<defs>
<linearGradient id="paint0_linear_3_56" x1="24" y1="0" x2="24" y2="48" gradientUnits="userSpaceOnUse">
<stop stop-color="#FFB33B"/>
<stop offset="1" stop-color="#FF5F26"/>
</linearGradient>
</defs>
</svg>
