<svg width="64" height="64" viewBox="0 0 64 64" fill="none" xmlns="http://www.w3.org/2000/svg">
<circle cx="32" cy="32" r="32" fill="#FF7171"/>
<path d="M32.1885 19H32.4023C34.377 19.0072 44.3828 19.0793 47.0806 19.8048C47.8962 20.0262 48.6394 20.4578 49.2359 21.0564C49.8325 21.6551 50.2614 22.3998 50.48 23.2161C50.7226 24.129 50.8932 25.3374 51.0085 26.5842L51.0325 26.8341L51.0854 27.4587L51.1046 27.7085C51.2607 29.9043 51.2799 31.9607 51.2823 32.4099V32.5901C51.2799 33.0561 51.2583 35.2519 51.0854 37.5389L51.0661 37.7912L51.0445 38.041C50.9244 39.4152 50.7466 40.7797 50.48 41.7839C50.2621 42.6006 49.8333 43.3456 49.2367 43.9444C48.6401 44.5431 47.8965 44.9745 47.0806 45.1952C44.2939 45.9447 33.702 45.9976 32.2341 46H31.893C31.1507 46 28.0805 45.9856 24.8613 45.8751L24.4529 45.8607L24.2439 45.8511L23.8331 45.8342L23.4223 45.8174C20.7557 45.6997 18.2164 45.5099 17.0465 45.1928C16.2309 44.9723 15.4875 44.5413 14.8909 43.943C14.2943 43.3447 13.8654 42.6001 13.6472 41.7839C13.3805 40.7821 13.2027 39.4152 13.0826 38.041L13.0634 37.7888L13.0442 37.5389C12.9256 35.9111 12.8599 34.2798 12.8472 32.6477L12.8472 32.3523C12.852 31.8358 12.8712 30.0508 13.0009 28.0809L13.0177 27.8334L13.0249 27.7085L13.0442 27.4587L13.097 26.8341L13.121 26.5842C13.2363 25.3374 13.4069 24.1266 13.6496 23.2161C13.8674 22.3994 14.2962 21.6544 14.8928 21.0556C15.4894 20.4569 16.233 20.0255 17.0489 19.8048C18.2188 19.4925 20.7581 19.3003 23.4247 19.1802L23.8331 19.1634L24.2463 19.1489L24.4529 19.1417L24.8637 19.1249C27.1501 19.0513 29.4373 19.0105 31.7248 19.0024H32.1885V19ZM28.2222 26.7115V38.2861L38.2088 32.5012L28.2222 26.7115Z" fill="white"/>
</svg>
