<svg width="28" height="22" viewBox="0 0 28 22" fill="none" xmlns="http://www.w3.org/2000/svg">
<path fill-rule="evenodd" clip-rule="evenodd" d="M1.27332 1.61465L0.440613 2.395V11.0097V19.6243L1.27332 20.4047L2.10569 21.1853H14.0082H25.9107L26.743 20.4047L27.5758 19.6243V12.2816V4.93892L26.743 4.15857C25.9232 3.38967 25.8215 3.3779 20.0281 3.3779H14.1459L12.821 2.10594L11.4961 0.833984H6.80109C2.26816 0.833984 2.07686 0.861014 1.27332 1.61465ZM15.3649 9.7377V11.0097H16.7217H18.0785V12.2816V13.5536H16.7217H15.3649V14.8255V16.0975H14.0082H12.6514V14.8255V13.5536H11.2947H9.93791V12.2816V11.0097H11.2947H12.6514V9.7377V8.46574H14.0082H15.3649V9.7377Z" fill="black"/>
</svg>
