<svg width="25" height="25" viewBox="0 0 25 25" fill="none" xmlns="http://www.w3.org/2000/svg">
<path fill-rule="evenodd" clip-rule="evenodd" d="M10.3922 1.34945C7.13297 2.76893 6.36314 7.10166 8.91652 9.65536C11.0121 11.7507 14.0042 11.7507 16.0998 9.65536C20.1092 5.64568 15.5985 -0.91835 10.3922 1.34945ZM7.66244 15.7978C5.00924 16.5192 3.09647 17.5016 2.0149 18.6988C0.960795 19.8656 0.878418 20.1086 0.878418 22.0556V24.1544H12.5082H24.1379V22.0659C24.1379 20.1703 24.041 19.8669 23.088 18.7815C21.9767 17.5158 20.1757 16.576 17.5187 15.875L15.9034 15.4489L14.2058 17.1255L12.5082 18.8022L10.8022 17.1171C9.8637 16.1903 9.02765 15.4454 8.94462 15.4612C8.86128 15.4773 8.28431 15.6289 7.66244 15.7978Z" fill="black"/>
</svg>
